<?xml version="1.0" encoding="UTF-8" standalone="no"?>
<svg
   xmlns:dc="http://purl.org/dc/elements/1.1/"
   xmlns:cc="http://creativecommons.org/ns#"
   xmlns:rdf="http://www.w3.org/1999/02/22-rdf-syntax-ns#"
   xmlns:svg="http://www.w3.org/2000/svg"
   xmlns="http://www.w3.org/2000/svg"
   viewBox="220 65 702 243"
   height="243"
   width="702"
   xml:space="preserve"
   id="svg2"
   version="1.1"><metadata
     id="metadata8"><rdf:RDF><cc:Work
         rdf:about=""><dc:format>image/svg+xml</dc:format><dc:type
           rdf:resource="http://purl.org/dc/dcmitype/StillImage" /></cc:Work></rdf:RDF></metadata><defs
     id="defs6" /><g
     transform="matrix(1.3333333,0,0,-1.3333333,0,368)"
     id="g10"><g
       transform="scale(0.1)"
       id="g12"><path
         id="path16"
         style="fill:#ffffff;fill-opacity:1;fill-rule:evenodd;stroke:none"
         d="m 2574.23,441.531 c -504.8,0 -914.23,409.43 -914.23,914.229 0,504.8 409.43,914.24 914.23,914.24 h 3437.01 c 504.8,0 914.23,-409.43 914.23,-914.24 0,-504.799 -409.43,-914.229 -914.23,-914.229 H 2574.23 v 0" /><path
         id="path18"
         style="fill:#ed1c24;fill-opacity:1;fill-rule:evenodd;stroke:none"
         d="m 2574.23,514.02 c -464.79,0 -841.74,376.96 -841.74,841.74 0,464.79 376.95,841.76 841.74,841.76 h 3437 c 464.81,0 841.75,-376.97 841.75,-841.76 0,-464.78 -376.94,-841.74 -841.75,-841.74 h -3437 v 0" /><path
         id="path20"
         style="fill:#ffffff;fill-opacity:1;fill-rule:evenodd;stroke:none"
         d="m 5736.05,941.141 v 945.969 h 277.05 v -461.69 l 182.74,213.97 h 310.96 l -259.09,-257.6 294.34,-440.649 h -329.58 l -151.88,249.909 -47.49,-48.87 V 941.141 h -277.05 z m -310.88,0 -17.29,66.859 c -35.45,-31.34 -73.75,-54.359 -114.68,-69.262 -41.14,-15.129 -87.32,-22.578 -138.52,-22.578 -78.56,0 -139.41,19.289 -182.51,58.078 -42.9,38.812 -64.35,93.392 -64.35,164.212 0,68.84 21.22,119.92 63.46,152.8 42.24,32.89 122.35,57 239.85,71.91 14.89,2.19 35.01,4.38 60.19,7.01 87.74,9.42 131.53,32.23 131.53,68.18 0,19.95 -8.11,34.64 -24.08,43.86 -15.97,9.2 -41.35,13.81 -75.94,13.81 -28.66,0 -50.77,-5.72 -66.09,-17.1 -15.31,-11.2 -24.3,-28.73 -26.92,-52.19 h -270.47 c 1.29,78.28 33.25,137.47 96.05,177.59 62.81,40.11 155.18,60.05 277.07,60.05 57.33,0 110.07,-5.24 158.65,-16 48.37,-10.73 86.22,-24.98 113.14,-43.18 32.83,-22.14 56.02,-47.35 69.17,-75.41 13.35,-28.06 19.91,-68.2 19.91,-120.36 v -389.13 c 0,-12.94 2.62,-24.341 7.65,-34.419 5.25,-10.101 12.7,-18.41 22.54,-24.789 v -19.941 h -278.36 z m -25.61,311.529 c -26.48,-10.31 -61.72,-21.26 -105.69,-32.66 -69.39,-18.42 -103.96,-43.2 -103.96,-73.88 0,-19.73 6.79,-35.09 20.58,-46.27 13.56,-11.18 33.04,-16.65 58.21,-16.65 46.17,0 79.86,10.74 101.1,32 21.23,21.48 31.72,55.46 31.72,102.15 0,9.88 0,17.33 -0.2,22.15 -0.23,4.83 -0.89,9.21 -1.76,13.16 z M 4139.35,661.191 v 978.199 h 245.53 v -89.23 c 27.36,37.27 59.09,64.45 95.42,81.78 36.32,17.32 79.88,26.08 130.23,26.08 90.14,0 163.25,-33.99 219.26,-101.73 56.02,-67.95 84.04,-157.18 84.04,-267.67 0,-112.91 -27.79,-203 -83.61,-270.31 -55.8,-67.29 -130.86,-100.841 -224.74,-100.841 -43.33,0 -80.97,7.23 -112.93,21.91 -32.16,14.48 -60.18,37.062 -84.02,67.311 V 661.191 c -291.49,0 106.27,0 -269.18,0 z m 497.42,627.659 c 0,54.8 -9.18,95.35 -27.58,121.88 -18.37,26.54 -46.39,39.9 -84.03,39.9 -40.48,0 -70.24,-12.94 -88.83,-38.81 -18.62,-25.87 -27.8,-66.86 -27.8,-122.97 0,-52.83 9.4,-92.31 28.44,-118.62 19.04,-26.29 47.71,-39.46 85.78,-39.46 37.43,0 65.87,13.38 85.13,39.9 19.26,26.54 28.89,65.77 28.89,118.18 z M 3798.49,941.141 v 945.969 h 279.46 V 941.141 h -279.46 z m -58.78,698.249 V 941.141 h -253.42 v 102.819 c -32.39,-41.21 -68.71,-71.671 -108.55,-91.64 -40.05,-19.961 -85.12,-29.82 -135.67,-29.82 -42.24,0 -80.11,7.02 -113.37,21.27 -33.49,14.039 -61.72,35.089 -84.69,62.92 -20.58,24.77 -35.01,55.03 -43.55,90.77 -8.54,35.72 -12.9,95.79 -12.9,180.21 v 361.72 h 277.04 v -360.41 c 0,-53.05 7.01,-89.89 21.24,-110.27 13.99,-20.4 38.28,-30.49 73.09,-30.49 34.58,0 60.39,11.85 77.69,35.3 17.28,23.69 26.05,59.2 26.05,106.76 v 359.11 h 277.04 z M 2124.32,1236.02 h 294.99 c 8.1,-34.21 22.76,-58.99 44.22,-73.88 21.44,-15.14 53.15,-22.59 95.41,-22.59 35.44,0 63.24,6.13 83.59,18.41 20.35,12.06 30.42,28.93 30.42,50.43 0,34.2 -42.46,62.03 -127.37,83.52 -17.06,4.16 -30.19,7.45 -39.17,9.64 -69.59,17.99 -125.18,34.21 -166.32,49.11 -41.35,14.69 -71.34,28.51 -90.17,41.44 -36.33,26.08 -63.46,57.44 -81.63,93.82 -18.15,36.4 -27.36,77.83 -27.36,124.53 0,93.82 35.25,167.5 105.72,220.98 70.68,53.49 167.63,80.25 291.05,80.25 121.47,0 217.1,-25.67 286.68,-76.74 69.59,-51.31 108.98,-124.52 117.96,-220.11 h -287.78 c -4.58,27.85 -17.06,48.68 -36.76,62.26 -19.91,13.82 -48.36,20.62 -85.12,20.62 -32.39,0 -56.47,-5.27 -72.45,-16.01 -15.75,-10.75 -23.64,-26.97 -23.64,-48.89 0,-31.14 41.37,-57.43 124.31,-78.26 7.45,-2.2 12.92,-3.73 16.64,-4.62 12.03,-2.85 30.2,-7.44 54.49,-13.35 109.85,-27.85 181.63,-53.06 215.34,-75.86 42.02,-27.85 72.42,-59.42 91.69,-95.15 19.26,-35.52 28.88,-77.39 28.88,-125.84 0,-104.35 -36.31,-184.59 -109.19,-240.71 -72.88,-56.122 -177.28,-84.188 -313.17,-84.188 -125.4,0 -224.53,28.066 -297.85,84.188 -73.3,56.12 -114.45,135.04 -123.41,237 v 0" /></g></g></svg>